<svg data-v-fde0c5aa="" xmlns="http://www.w3.org/2000/svg" viewBox="0 0 300 300" class="iconLeft"><!----><defs data-v-fde0c5aa=""><linearGradient data-v-fde0c5aa="" gradientTransform="rotate(25)" id="e7e67a35-2418-481a-8ef5-3762877602c8" x1="0%" y1="0%" x2="100%" y2="0%"><stop data-v-fde0c5aa="" offset="0%" stop-color="#51A4FB" stop-opacity="1"></stop><stop data-v-fde0c5aa="" offset="100%" stop-color="#51A4FB" stop-opacity="1"></stop></linearGradient></defs><rect data-v-fde0c5aa="" fill="url(#e7e67a35-2418-481a-8ef5-3762877602c8)" x="0" y="0" width="300px" height="300px" class="logo-background-square"></rect><defs data-v-fde0c5aa=""><!----></defs><g data-v-fde0c5aa="" id="3a505ded-9601-4bcd-8f57-10372a875b4c" fill="#ffffff" transform="matrix(4.507510269855174,0,0,4.507510269855174,113.01008519950848,108.73374253376261)"><path d="M4.91 13.94C6.09 13.94 6.96 13.44 7.67 12.63L7.18 12.11C6.54 12.82 5.87 13.20 4.96 13.20C3.05 13.20 1.85 11.61 1.85 9.13C1.85 6.66 3.05 5.11 4.98 5.11C5.80 5.11 6.45 5.47 6.94 6.01L7.42 5.46C6.92 4.89 6.08 4.37 4.98 4.37C2.62 4.37 0.98 6.20 0.98 9.13C0.98 12.11 2.62 13.94 4.91 13.94ZM12.61 13.94C14.24 13.94 15.61 13.05 15.61 10.32L15.61 4.54L14.80 4.54L14.80 10.26C14.80 12.49 13.80 13.20 12.61 13.20C11.41 13.20 10.43 12.49 10.43 10.26L10.43 4.54L9.59 4.54L9.59 10.32C9.59 13.05 10.96 13.94 12.61 13.94ZM18.34 13.78L20.93 13.78C23.00 13.78 24.37 12.88 24.37 11.07C24.37 9.80 23.55 9.04 22.19 8.85L22.19 8.79C23.27 8.53 23.81 7.71 23.81 6.78C23.81 5.21 22.61 4.54 20.73 4.54L18.34 4.54ZM19.19 8.57L19.19 5.21L20.58 5.21C22.16 5.21 22.99 5.68 22.99 6.80C22.99 7.94 22.29 8.57 20.51 8.57ZM19.19 13.10L19.19 9.21L20.76 9.21C22.54 9.21 23.55 9.79 23.55 11.06C23.55 12.47 22.50 13.10 20.76 13.10ZM26.92 13.78L32.61 13.78L32.61 13.06L27.76 13.06L27.76 9.25L31.72 9.25L31.72 8.53L27.76 8.53L27.76 5.24L32.47 5.24L32.47 4.54L26.92 4.54Z"></path></g><defs data-v-fde0c5aa=""><!----></defs><g data-v-fde0c5aa="" id="1d33bcac-a876-4e75-b77c-0b39e2b03f57" stroke="none" fill="#ffffff" transform="matrix(1.5501528039445156,0,0,1.5501528039445156,27.51816807333748,109.69583343478266)"><path clip-rule="evenodd" d="M49.611 16.958c0-1.65-1.227-3.564-2.725-4.254L31.559 5.647c-1.498-.69-3.951-.69-5.45 0l-15.331 7.057c-1.499.69-2.726 2.604-2.726 4.254v18.083c0 1.65 1.227 3.564 2.726 4.255l15.331 7.058c1.499.689 3.952.689 5.45 0l15.33-7.058c1.498-.69 2.725-2.604 2.725-4.255l-.003-18.083zm-5.26 2.518l-11.574 5.327c-.999.459-1.816 1.736-1.816 2.836V39.92c0 1.1-.9 2-2 2h-.262c-1.1 0-2-.9-2-2V27.638c0-1.101-.817-2.376-1.816-2.836l-11.571-5.325a2.006 2.006 0 0 1-.98-2.653l.109-.239a2.005 2.005 0 0 1 2.652-.98l11.921 5.488c.999.46 2.634.46 3.633 0l11.924-5.488a2.005 2.005 0 0 1 2.652.98l.109.239a2.006 2.006 0 0 1-.981 2.652z"></path></g><!----></svg>