<svg data-v-423bf9ae="" xmlns="http://www.w3.org/2000/svg" viewBox="0 0 203.44827288853037 60" class="font"><!----><!----><!----><g data-v-423bf9ae="" id="d4ae769d-23ab-4502-beb1-efa765ec0cd5" fill="white" transform="matrix(4.597701082226675,0,0,4.597701082226675,-1.7931029591972845,-0.22988573776633103)"><path d="M6.49 8.15L6.49 8.15L6.49 8.15Q6.49 8.67 6.29 9.07L6.29 9.07L6.29 9.07Q6.09 9.48 5.71 9.76L5.71 9.76L5.71 9.76Q5.33 10.04 4.77 10.18L4.77 10.18L4.77 10.18Q4.21 10.33 3.49 10.33L3.49 10.33L3.49 10.33Q2.85 10.33 2.33 10.23L2.33 10.23L2.33 10.23Q1.82 10.13 1.43 9.91L1.43 9.91L1.43 9.91Q1.04 9.69 0.78 9.33L0.78 9.33L0.78 9.33Q0.51 8.98 0.39 8.46L0.39 8.46L1.48 8.24L1.48 8.24Q1.63 8.84 2.13 9.12L2.13 9.12L2.13 9.12Q2.62 9.39 3.49 9.39L3.49 9.39L3.49 9.39Q3.89 9.39 4.22 9.34L4.22 9.34L4.22 9.34Q4.55 9.28 4.79 9.15L4.79 9.15L4.79 9.15Q5.03 9.02 5.16 8.79L5.16 8.79L5.16 8.79Q5.30 8.57 5.30 8.24L5.30 8.24L5.30 8.24Q5.30 7.91 5.14 7.69L5.14 7.69L5.14 7.69Q4.98 7.48 4.70 7.33L4.70 7.33L4.70 7.33Q4.42 7.19 4.02 7.09L4.02 7.09L4.02 7.09Q3.62 6.98 3.14 6.85L3.14 6.85L3.14 6.85Q2.70 6.73 2.26 6.59L2.26 6.59L2.26 6.59Q1.83 6.45 1.47 6.21L1.47 6.21L1.47 6.21Q1.12 5.97 0.90 5.63L0.90 5.63L0.90 5.63Q0.68 5.28 0.68 4.75L0.68 4.75L0.68 4.75Q0.68 3.74 1.40 3.21L1.40 3.21L1.40 3.21Q2.13 2.68 3.51 2.68L3.51 2.68L3.51 2.68Q4.73 2.68 5.45 3.11L5.45 3.11L5.45 3.11Q6.17 3.54 6.36 4.49L6.36 4.49L5.26 4.63L5.26 4.63Q5.20 4.34 5.03 4.15L5.03 4.15L5.03 4.15Q4.87 3.95 4.63 3.83L4.63 3.83L4.63 3.83Q4.40 3.71 4.11 3.66L4.11 3.66L4.11 3.66Q3.82 3.61 3.51 3.61L3.51 3.61L3.51 3.61Q2.67 3.61 2.28 3.86L2.28 3.86L2.28 3.86Q1.88 4.12 1.88 4.63L1.88 4.63L1.88 4.63Q1.88 4.93 2.03 5.12L2.03 5.12L2.03 5.12Q2.17 5.32 2.44 5.45L2.44 5.45L2.44 5.45Q2.70 5.58 3.07 5.68L3.07 5.68L3.07 5.68Q3.44 5.78 3.88 5.89L3.88 5.89L3.88 5.89Q4.18 5.97 4.48 6.05L4.48 6.05L4.48 6.05Q4.79 6.14 5.08 6.26L5.08 6.26L5.08 6.26Q5.37 6.38 5.63 6.54L5.63 6.54L5.63 6.54Q5.89 6.70 6.08 6.92L6.08 6.92L6.08 6.92Q6.27 7.15 6.38 7.45L6.38 7.45L6.38 7.45Q6.49 7.75 6.49 8.15ZM9.15 4.06L9.17 4.06L9.17 4.06Q9.37 3.68 9.61 3.42L9.61 3.42L9.61 3.42Q9.85 3.16 10.14 2.99L10.14 2.99L10.14 2.99Q10.42 2.82 10.77 2.74L10.77 2.74L10.77 2.74Q11.11 2.66 11.53 2.66L11.53 2.66L11.53 2.66Q12.24 2.66 12.70 2.85L12.70 2.85L12.70 2.85Q13.15 3.04 13.42 3.39L13.42 3.39L13.42 3.39Q13.68 3.73 13.78 4.21L13.78 4.21L13.78 4.21Q13.88 4.69 13.88 5.26L13.88 5.26L13.88 10.19L12.64 10.19L12.64 5.50L12.64 5.50Q12.64 5.03 12.58 4.68L12.58 4.68L12.58 4.68Q12.52 4.32 12.36 4.08L12.36 4.08L12.36 4.08Q12.20 3.85 11.89 3.73L11.89 3.73L11.89 3.73Q11.59 3.61 11.12 3.61L11.12 3.61L11.12 3.61Q10.68 3.61 10.33 3.77L10.33 3.77L10.33 3.77Q9.97 3.92 9.72 4.21L9.72 4.21L9.72 4.21Q9.47 4.50 9.34 4.91L9.34 4.91L9.34 4.91Q9.20 5.32 9.20 5.83L9.20 5.83L9.20 10.19L7.97 10.19L7.97 0.05L9.20 0.05L9.20 2.69L9.20 2.69Q9.20 2.91 9.19 3.14L9.19 3.14L9.19 3.14Q9.19 3.36 9.18 3.55L9.18 3.55L9.18 3.55Q9.17 3.75 9.16 3.88L9.16 3.88L9.16 3.88Q9.15 4.01 9.15 4.06L9.15 4.06ZM21.98 6.49L21.98 6.49L21.98 6.49Q21.98 8.43 21.13 9.38L21.13 9.38L21.13 9.38Q20.28 10.33 18.65 10.33L18.65 10.33L18.65 10.33Q17.88 10.33 17.27 10.10L17.27 10.10L17.27 10.10Q16.66 9.86 16.24 9.39L16.24 9.39L16.24 9.39Q15.82 8.91 15.60 8.19L15.60 8.19L15.60 8.19Q15.37 7.46 15.37 6.49L15.37 6.49L15.37 6.49Q15.37 2.66 18.69 2.66L18.69 2.66L18.69 2.66Q19.55 2.66 20.18 2.90L20.18 2.90L20.18 2.90Q20.80 3.14 21.20 3.62L21.20 3.62L21.20 3.62Q21.60 4.09 21.79 4.81L21.79 4.81L21.79 4.81Q21.98 5.53 21.98 6.49ZM20.69 6.49L20.69 6.49L20.69 6.49Q20.69 5.63 20.56 5.07L20.56 5.07L20.56 5.07Q20.43 4.50 20.17 4.17L20.17 4.17L20.17 4.17Q19.91 3.83 19.54 3.70L19.54 3.70L19.54 3.70Q19.17 3.57 18.71 3.57L18.71 3.57L18.71 3.57Q18.24 3.57 17.86 3.71L17.86 3.71L17.86 3.71Q17.48 3.85 17.21 4.19L17.21 4.19L17.21 4.19Q16.95 4.53 16.81 5.09L16.81 5.09L16.81 5.09Q16.67 5.65 16.67 6.49L16.67 6.49L16.67 6.49Q16.67 7.35 16.82 7.91L16.82 7.91L16.82 7.91Q16.97 8.48 17.23 8.81L17.23 8.81L17.23 8.81Q17.49 9.15 17.85 9.28L17.85 9.28L17.85 9.28Q18.21 9.42 18.63 9.42L18.63 9.42L18.63 9.42Q19.11 9.42 19.49 9.29L19.49 9.29L19.49 9.29Q19.87 9.15 20.14 8.82L20.14 8.82L20.14 8.82Q20.41 8.48 20.55 7.92L20.55 7.92L20.55 7.92Q20.69 7.35 20.69 6.49ZM29.77 6.46L29.77 6.46L29.77 6.46Q29.77 7.30 29.63 8.01L29.63 8.01L29.63 8.01Q29.50 8.72 29.18 9.24L29.18 9.24L29.18 9.24Q28.86 9.75 28.34 10.04L28.34 10.04L28.34 10.04Q27.82 10.33 27.05 10.33L27.05 10.33L27.05 10.33Q26.26 10.33 25.66 10.03L25.66 10.03L25.66 10.03Q25.07 9.73 24.75 9.04L24.75 9.04L24.72 9.04L24.72 9.04Q24.73 9.06 24.73 9.17L24.73 9.17L24.73 9.17Q24.73 9.28 24.74 9.44L24.74 9.44L24.74 9.44Q24.74 9.60 24.74 9.81L24.74 9.81L24.74 9.81Q24.75 10.01 24.75 10.21L24.75 10.21L24.75 13.10L23.52 13.10L23.52 4.31L23.52 4.31Q23.52 4.04 23.51 3.79L23.51 3.79L23.51 3.79Q23.51 3.55 23.50 3.35L23.50 3.35L23.50 3.35Q23.50 3.14 23.49 3.00L23.49 3.00L23.49 3.00Q23.48 2.86 23.47 2.80L23.47 2.80L24.66 2.80L24.66 2.80Q24.67 2.82 24.68 2.94L24.68 2.94L24.68 2.94Q24.69 3.06 24.70 3.24L24.70 3.24L24.70 3.24Q24.71 3.41 24.72 3.61L24.72 3.61L24.72 3.61Q24.73 3.81 24.73 3.99L24.73 3.99L24.76 3.99L24.76 3.99Q24.93 3.63 25.15 3.38L25.15 3.38L25.15 3.38Q25.37 3.13 25.65 2.97L25.65 2.97L25.65 2.97Q25.93 2.81 26.27 2.74L26.27 2.74L26.27 2.74Q26.62 2.67 27.05 2.67L27.05 2.67L27.05 2.67Q27.82 2.67 28.34 2.94L28.34 2.94L28.34 2.94Q28.86 3.21 29.18 3.71L29.18 3.71L29.18 3.71Q29.50 4.20 29.63 4.90L29.63 4.90L29.63 4.90Q29.77 5.61 29.77 6.46ZM28.48 6.49L28.48 6.49L28.48 6.49Q28.48 5.80 28.40 5.27L28.40 5.27L28.40 5.27Q28.31 4.74 28.11 4.37L28.11 4.37L28.11 4.37Q27.91 4.00 27.58 3.81L27.58 3.81L27.58 3.81Q27.24 3.62 26.74 3.62L26.74 3.62L26.74 3.62Q26.33 3.62 25.96 3.73L25.96 3.73L25.96 3.73Q25.60 3.85 25.33 4.18L25.33 4.18L25.33 4.18Q25.06 4.50 24.90 5.08L24.90 5.08L24.90 5.08Q24.75 5.66 24.75 6.58L24.75 6.58L24.75 6.58Q24.75 7.37 24.88 7.91L24.88 7.91L24.88 7.91Q25.01 8.46 25.26 8.79L25.26 8.79L25.26 8.79Q25.50 9.13 25.87 9.27L25.87 9.27L25.87 9.27Q26.24 9.42 26.72 9.42L26.72 9.42L26.72 9.42Q27.23 9.42 27.57 9.22L27.57 9.22L27.57 9.22Q27.91 9.02 28.11 8.65L28.11 8.65L28.11 8.65Q28.31 8.27 28.40 7.73L28.40 7.73L28.40 7.73Q28.48 7.18 28.48 6.49ZM37.56 6.49L37.56 6.49L37.56 6.49Q37.56 8.43 36.70 9.38L36.70 9.38L36.70 9.38Q35.85 10.33 34.22 10.33L34.22 10.33L34.22 10.33Q33.45 10.33 32.84 10.10L32.84 10.10L32.84 10.10Q32.23 9.86 31.81 9.39L31.81 9.39L31.81 9.39Q31.39 8.91 31.17 8.19L31.17 8.19L31.17 8.19Q30.95 7.46 30.95 6.49L30.95 6.49L30.95 6.49Q30.95 2.66 34.26 2.66L34.26 2.66L34.26 2.66Q35.12 2.66 35.75 2.90L35.75 2.90L35.75 2.90Q36.37 3.14 36.77 3.62L36.77 3.62L36.77 3.62Q37.17 4.09 37.37 4.81L37.37 4.81L37.37 4.81Q37.56 5.53 37.56 6.49ZM36.26 6.49L36.26 6.49L36.26 6.49Q36.26 5.63 36.13 5.07L36.13 5.07L36.13 5.07Q36.00 4.50 35.74 4.17L35.74 4.17L35.74 4.17Q35.49 3.83 35.12 3.70L35.12 3.70L35.12 3.70Q34.75 3.57 34.28 3.57L34.28 3.57L34.28 3.57Q33.81 3.57 33.43 3.71L33.43 3.71L33.43 3.71Q33.05 3.85 32.79 4.19L32.79 4.19L32.79 4.19Q32.52 4.53 32.38 5.09L32.38 5.09L32.38 5.09Q32.24 5.65 32.24 6.49L32.24 6.49L32.24 6.49Q32.24 7.35 32.39 7.91L32.39 7.91L32.39 7.91Q32.54 8.48 32.80 8.81L32.80 8.81L32.80 8.81Q33.07 9.15 33.42 9.28L33.42 9.28L33.42 9.28Q33.78 9.42 34.21 9.42L34.21 9.42L34.21 9.42Q34.68 9.42 35.06 9.29L35.06 9.29L35.06 9.29Q35.44 9.15 35.71 8.82L35.71 8.82L35.71 8.82Q35.98 8.48 36.12 7.92L36.12 7.92L36.12 7.92Q36.26 7.35 36.26 6.49ZM44.64 8.15L44.64 8.15L44.64 8.15Q44.64 8.67 44.44 9.07L44.44 9.07L44.44 9.07Q44.24 9.48 43.85 9.76L43.85 9.76L43.85 9.76Q43.47 10.04 42.91 10.18L42.91 10.18L42.91 10.18Q42.36 10.33 41.64 10.33L41.64 10.33L41.64 10.33Q41.00 10.33 40.48 10.23L40.48 10.23L40.48 10.23Q39.96 10.13 39.57 9.91L39.57 9.91L39.57 9.91Q39.18 9.69 38.92 9.33L38.92 9.33L38.92 9.33Q38.66 8.98 38.53 8.46L38.53 8.46L39.62 8.24L39.62 8.24Q39.78 8.84 40.27 9.12L40.27 9.12L40.27 9.12Q40.76 9.39 41.64 9.39L41.64 9.39L41.64 9.39Q42.03 9.39 42.37 9.34L42.37 9.34L42.37 9.34Q42.70 9.28 42.94 9.15L42.94 9.15L42.94 9.15Q43.18 9.02 43.31 8.79L43.31 8.79L43.31 8.79Q43.44 8.57 43.44 8.24L43.44 8.24L43.44 8.24Q43.44 7.91 43.29 7.69L43.29 7.69L43.29 7.69Q43.13 7.48 42.85 7.33L42.85 7.33L42.85 7.33Q42.57 7.19 42.17 7.09L42.17 7.09L42.17 7.09Q41.77 6.98 41.29 6.85L41.29 6.85L41.29 6.85Q40.84 6.73 40.41 6.59L40.41 6.59L40.41 6.59Q39.97 6.45 39.62 6.21L39.62 6.21L39.62 6.21Q39.27 5.97 39.05 5.63L39.05 5.63L39.05 5.63Q38.83 5.28 38.83 4.75L38.83 4.75L38.83 4.75Q38.83 3.74 39.55 3.21L39.55 3.21L39.55 3.21Q40.27 2.68 41.65 2.68L41.65 2.68L41.65 2.68Q42.88 2.68 43.60 3.11L43.60 3.11L43.60 3.11Q44.32 3.54 44.51 4.49L44.51 4.49L43.40 4.63L43.40 4.63Q43.34 4.34 43.18 4.15L43.18 4.15L43.18 4.15Q43.01 3.95 42.78 3.83L42.78 3.83L42.78 3.83Q42.55 3.71 42.26 3.66L42.26 3.66L42.26 3.66Q41.97 3.61 41.65 3.61L41.65 3.61L41.65 3.61Q40.82 3.61 40.42 3.86L40.42 3.86L40.42 3.86Q40.02 4.12 40.02 4.63L40.02 4.63L40.02 4.63Q40.02 4.93 40.17 5.12L40.17 5.12L40.17 5.12Q40.32 5.32 40.58 5.45L40.58 5.45L40.58 5.45Q40.84 5.58 41.21 5.68L41.21 5.68L41.21 5.68Q41.58 5.78 42.03 5.89L42.03 5.89L42.03 5.89Q42.32 5.97 42.63 6.05L42.63 6.05L42.63 6.05Q42.94 6.14 43.23 6.26L43.23 6.26L43.23 6.26Q43.52 6.38 43.77 6.54L43.77 6.54L43.77 6.54Q44.03 6.70 44.22 6.92L44.22 6.92L44.22 6.92Q44.41 7.15 44.53 7.45L44.53 7.45L44.53 7.45Q44.64 7.75 44.64 8.15Z"></path></g><!----><!----></svg>